<svg width="200" height="200" viewBox="0 0 200 200" fill="none" xmlns="http://www.w3.org/2000/svg">
<g id="6_book">
<g id="general">
<path id="Vector" d="M39.8471 156.364C47.9228 160.319 59.2554 166.068 73.9445 174.343C73.9445 174.343 5.4174 156.663 4.221 149.684C3.45663 145.098 9.1063 139.415 13.1275 136.058C14.0913 137.388 15.3542 138.717 16.9494 140.279C27.1852 150.216 37.8864 155.4 39.8471 156.364Z" fill="#007B66"/>
<path id="Vector_2" d="M190.128 119.043C180.756 153.207 176.071 170.289 161.98 178.763C150.647 185.543 139.082 185.144 121.767 184.513C101.03 183.748 84.4795 178.564 73.9778 174.343C85.0112 175.34 98.1384 176.271 113.027 176.836C131.239 177.501 143.535 177.301 156.23 170.222C156.696 169.957 157.094 169.757 157.626 169.425C168.227 162.678 172.648 147.69 181.488 117.681C188.234 94.7828 188.633 85.3445 187.603 81.0574C188.566 81.4894 189.364 81.9879 190.161 82.6858C196.31 88.1029 195.313 100.034 190.128 119.043Z" fill="#007B66"/>
<path id="Vector_3" d="M72.7815 173.545C73.1803 173.811 73.5458 174.077 73.9114 174.31C59.2223 166.034 47.9229 160.285 39.814 156.33C37.8865 155.4 27.1853 150.182 16.883 140.212C15.2878 138.65 14.0249 137.321 13.0612 135.992C12.0974 134.662 11.4327 133.366 10.9675 131.837C9.40552 126.653 11.1336 121.402 13.327 117.182C15.9192 124.659 23.9617 132.336 38.0859 145.596C51.7115 158.358 64.0743 167.563 72.7815 173.545Z" fill="#DB0032"/>
<path id="Vector_4" d="M181.454 117.614C172.614 147.624 168.194 162.612 157.593 169.358C157.061 169.69 156.662 169.923 156.197 170.156C143.469 177.234 131.206 177.467 112.994 176.769C98.1052 176.204 85.0113 175.274 73.9446 174.277C75.573 174.11 77.1682 173.944 78.7634 173.778C101.595 171.419 120.538 169.192 134.828 167.53C138.417 167.131 145.23 166.334 151.611 161.548C159.055 155.965 161.813 147.956 163.143 143.935C178.131 98.3385 181.654 81.888 181.521 75.3743C183.282 75.7398 184.612 76.4377 185.775 77.6009C186.373 78.1991 187.104 79.0632 187.569 80.9575C188.6 85.2778 188.201 94.7161 181.454 117.614Z" fill="#DB0032"/>
<path id="Vector_5" d="M181.521 75.4408C181.488 72.4498 180.657 71.5857 179.859 70.921C176.768 68.495 173.711 69.6914 146.858 75.2414C140.212 76.6039 134.197 77.8003 128.946 78.8306C125.789 79.462 122.93 79.9937 120.372 80.4922C120.239 80.5255 120.106 80.5587 119.973 80.5587C118.444 80.8578 117.015 81.1237 115.752 81.3563C115.519 80.9575 115.287 80.5587 115.054 80.1599C102.924 59.9873 96.1444 51.3798 96.1444 51.3798C89.2651 42.6395 85.7424 38.2527 81.7544 37.5216C73.5458 35.9596 66.0683 44.1682 52.642 59.3558C14.324 102.659 11.7982 106.813 12.5626 113.659C12.6955 114.856 12.9614 116.052 13.3934 117.215C15.9856 124.693 24.0281 132.369 38.1523 145.63C51.7115 158.358 64.0743 167.564 72.7814 173.579C73.1802 173.845 73.5458 174.111 73.9113 174.343C75.5398 174.177 77.135 174.011 78.7302 173.845C101.561 171.485 120.504 169.258 134.795 167.597C138.384 167.198 145.197 166.4 151.578 161.615C159.022 156.032 161.78 148.022 163.11 144.001C178.131 98.405 181.621 81.9545 181.521 75.4408Z" fill="#F9F3EF"/>
<path id="Vector_6" d="M119.973 80.5589C113.06 93.4202 106.148 106.281 99.2685 119.176C99.2685 119.176 88.0357 150.98 85.4767 156.829C83.9148 160.385 80.8905 168.228 78.7636 173.845C77.1684 174.011 75.5732 174.177 73.9448 174.343C73.5792 174.077 73.2136 173.845 72.8148 173.579C75.2076 169.425 78.6971 163.11 82.1866 156.098C90.9602 138.518 93.0207 128.116 99.2021 112.596C102.359 104.719 107.344 93.4202 115.054 80.1933C115.287 80.5921 115.52 80.9909 115.752 81.3897C117.048 81.1238 118.444 80.858 119.973 80.5589Z" fill="#003163"/>
<path id="Vector_7" d="M72.7811 50.3497C72.7811 50.3497 73.8778 56.099 80.3916 61.3167C86.9053 66.5343 103.522 86.441 103.522 86.441L106.779 80.1932L77.1347 44.9991L72.7811 50.3497Z" fill="#007B66"/>
<path id="Vector_8" d="M65.9352 57.6612C65.9352 57.6612 81.5881 75.8066 87.404 80.1934C93.2198 84.5802 100.863 92.2239 100.863 92.2239L98.6701 94.7828C98.6701 94.7828 80.4582 82.42 77.2013 78.0332C73.9112 73.6797 62.6451 61.2837 62.6451 61.2837L65.9352 57.6612Z" fill="#007B66"/>
<path id="Vector_9" d="M56.7959 67.7306C56.7959 67.7306 76.7359 92.4562 81.7873 94.7825C86.8388 97.1089 93.6184 105.849 93.6184 105.849L91.6909 110.037C91.6909 110.037 83.0502 101.629 72.8476 91.293C62.6449 80.9575 53.6055 69.7246 53.6055 69.7246L56.7959 67.7306Z" fill="#007B66"/>
<path id="Vector_10" d="M46.9922 81.024C46.9922 81.024 63.3098 100.067 68.7601 102.792C74.2103 105.517 87.8028 117.215 87.8028 117.215L85.3435 123.729L43.7021 85.1117L46.9922 81.024Z" fill="#007B66"/>
<path id="Vector_11" d="M34.1977 92.4561C34.1977 92.4561 42.3731 100.066 47.7901 104.154C57.7269 111.598 62.014 114.656 68.4612 121.003C69.3918 121.901 71.6516 124.194 74.975 127.251C77.966 130.01 80.4917 132.17 82.1534 133.566C81.1231 136.191 80.0929 138.783 79.0627 141.409C71.1199 135.56 62.8116 128.946 54.3038 121.568C45.3308 113.792 37.2884 106.082 30.11 98.7039C31.4726 96.6102 32.8351 94.5165 34.1977 92.4561Z" fill="#007B66"/>
<path id="Vector_12" d="M111.698 113.991C111.698 113.991 105.051 132.602 102.857 137.221C100.631 141.874 96.377 155.167 96.377 155.167C96.377 155.167 117.447 148.953 123.196 149.385C128.946 149.817 150.215 145.762 150.215 145.762L154.203 129.91L159.952 113.958H111.698V113.991ZM148.387 130.076L145.296 142.373C145.296 142.373 128.779 145.53 124.326 145.197C119.873 144.865 103.489 149.684 103.489 149.684C103.489 149.684 106.779 139.348 108.507 135.759C110.235 132.137 115.386 117.713 115.386 117.713H152.874L148.387 130.076Z" fill="#007B66"/>
<path id="Vector_13" d="M115.187 102.36C115.187 102.36 136.29 102.659 141.94 102.36C147.59 102.061 168.693 101.197 168.693 101.197L170.587 94.7825C170.587 94.7825 158.59 93.8852 152.907 94.7825C147.224 95.6798 117.846 96.9094 117.846 96.9094L115.187 102.36Z" fill="#007B66"/>
<path id="Vector_14" d="M121.036 88.8999C121.036 88.8999 134.363 88.1355 138.317 87.2382C142.272 86.3409 173.412 85.6098 173.412 85.6098L174.309 82.1868C174.309 82.1868 172.315 83.4496 168.194 83.4496C164.073 83.4496 153.804 83.2835 150.381 83.2835C146.958 83.2835 121.036 86.4406 121.036 86.4406V88.8999Z" fill="#007B66"/>
<path id="Vector_15" d="M52.0438 131.04C52.8746 134.164 49.3851 137.886 45.8624 138.119C44.3004 138.219 42.2067 137.654 40.8774 135.892C40.7444 135.726 39.1492 133.533 39.9801 131.007C40.8774 128.382 43.8019 127.418 45.7294 127.351C48.2219 127.318 51.3791 128.581 52.0438 131.04Z" fill="#003163"/>
<path id="Vector_16" d="M123.662 159.82C123.429 162.279 121.07 164.074 118.71 164.307C116.417 164.506 113.559 163.243 113.027 160.817C112.595 158.89 113.792 156.962 115.121 156.065C116.051 155.433 117.015 155.334 117.979 155.201C119.275 155.068 120.604 154.902 121.768 155.666C123.163 156.53 123.828 158.291 123.662 159.82Z" fill="#003163"/>
</g>
</g>
</svg>
